<svg width="570" height="512" viewBox="0 0 570 512" fill="none" xmlns="http://www.w3.org/2000/svg">
<g id="Group 8">
<g id="bar1">
<path id="Rectangle 1" d="M171 140C171 134.477 175.477 130 181 130H208C213.523 130 218 134.477 218 140V395H171V140Z" fill="#FB8C4E"/>
</g>
<g id="bar2">
<path id="Rectangle 2" d="M243 249C243 243.477 247.477 239 253 239H280C285.523 239 290 243.477 290 249V395H243V249Z" fill="#E2FF2F"/>
</g>
<g id="bar3">
<path id="Rectangle 3" d="M315 158C315 152.477 319.477 148 325 148H352C357.523 148 362 152.477 362 158V395H315V158Z" fill="#FF6262"/>
</g>
<g id="bar4">
<path id="Rectangle 4" d="M387 67C387 61.4771 391.477 57 397 57H424C429.523 57 434 61.4772 434 67V395H387V67Z" fill="#4AFFBE"/>
</g>
<path id="Vector 1" d="M134 0V512" stroke="#292929" stroke-width="2"/>
<path id="Vector 3" d="M541 395L29 395" stroke="#292929" stroke-width="2"/>
<path id="This is just dummy data." opacity="0.2" d="M143.208 409.432V408.12H150.936V409.432H147.768V419H146.376V409.432H143.208ZM156.357 412.152C156.058 412.152 155.706 412.227 155.301 412.376C154.906 412.525 154.426 412.829 153.861 413.288V419H152.549V407.16H153.861V412.136C154.415 411.667 154.917 411.347 155.365 411.176C155.813 411.005 156.25 410.92 156.677 410.92C157.413 410.92 157.973 411.155 158.357 411.624C158.751 412.083 158.949 412.739 158.949 413.592V419H157.637V413.784C157.637 412.696 157.21 412.152 156.357 412.152ZM163.081 409.144H161.609V407.672H163.081V409.144ZM163.001 419H161.689V411.08H163.001V419ZM167.766 417.992C168.833 417.992 169.366 417.629 169.366 416.904C169.366 416.595 169.27 416.349 169.078 416.168C168.886 415.987 168.534 415.832 168.022 415.704L167.142 415.48C166.491 415.32 166.006 415.043 165.686 414.648C165.366 414.243 165.206 413.763 165.206 413.208C165.206 412.803 165.297 412.429 165.478 412.088C165.659 411.736 165.947 411.453 166.342 411.24C166.737 411.027 167.249 410.92 167.878 410.92C168.283 410.92 168.694 410.968 169.11 411.064C169.537 411.149 169.969 411.299 170.406 411.512L169.99 412.616C169.211 412.264 168.507 412.088 167.878 412.088C166.95 412.088 166.486 412.435 166.486 413.128C166.486 413.395 166.571 413.624 166.742 413.816C166.913 414.008 167.233 414.163 167.702 414.28L168.582 414.504C169.286 414.675 169.803 414.952 170.134 415.336C170.465 415.72 170.63 416.216 170.63 416.824C170.63 417.261 170.534 417.661 170.342 418.024C170.161 418.376 169.862 418.653 169.446 418.856C169.041 419.059 168.491 419.16 167.798 419.16C167.339 419.16 166.881 419.112 166.422 419.016C165.974 418.92 165.51 418.765 165.03 418.552L165.382 417.464C165.841 417.645 166.257 417.779 166.63 417.864C167.003 417.949 167.382 417.992 167.766 417.992ZM177.597 409.144H176.125V407.672H177.597V409.144ZM177.517 419H176.205V411.08H177.517V419ZM182.282 417.992C183.348 417.992 183.882 417.629 183.882 416.904C183.882 416.595 183.786 416.349 183.594 416.168C183.402 415.987 183.05 415.832 182.538 415.704L181.658 415.48C181.007 415.32 180.522 415.043 180.202 414.648C179.882 414.243 179.722 413.763 179.722 413.208C179.722 412.803 179.812 412.429 179.993 412.088C180.175 411.736 180.463 411.453 180.858 411.24C181.252 411.027 181.764 410.92 182.394 410.92C182.799 410.92 183.21 410.968 183.626 411.064C184.052 411.149 184.484 411.299 184.922 411.512L184.506 412.616C183.727 412.264 183.023 412.088 182.394 412.088C181.466 412.088 181.002 412.435 181.002 413.128C181.002 413.395 181.087 413.624 181.258 413.816C181.428 414.008 181.748 414.163 182.218 414.28L183.098 414.504C183.802 414.675 184.319 414.952 184.65 415.336C184.98 415.72 185.146 416.216 185.146 416.824C185.146 417.261 185.05 417.661 184.858 418.024C184.676 418.376 184.378 418.653 183.962 418.856C183.556 419.059 183.007 419.16 182.314 419.16C181.855 419.16 181.396 419.112 180.938 419.016C180.49 418.92 180.026 418.765 179.546 418.552L179.898 417.464C180.356 417.645 180.772 417.779 181.146 417.864C181.519 417.949 181.898 417.992 182.282 417.992ZM192.113 409.144H190.641V407.672H192.113V409.144ZM188.992 422.568V421.32C189.558 421.32 189.985 421.187 190.273 420.92C190.571 420.653 190.721 420.136 190.721 419.368V411.08H192.033V419.368C192.033 419.987 191.942 420.536 191.761 421.016C191.579 421.496 191.265 421.875 190.817 422.152C190.379 422.429 189.771 422.568 188.992 422.568ZM199.741 419V417.88C199.186 418.36 198.69 418.696 198.253 418.888C197.816 419.069 197.378 419.16 196.941 419.16C196.237 419.16 195.698 418.931 195.325 418.472C194.952 418.003 194.765 417.347 194.765 416.504V411.08H196.077V416.312C196.077 416.867 196.173 417.277 196.365 417.544C196.568 417.8 196.866 417.928 197.261 417.928C197.56 417.928 197.896 417.853 198.269 417.704C198.642 417.555 199.106 417.256 199.661 416.808V411.08H200.973V419H199.741ZM205.735 417.992C206.801 417.992 207.335 417.629 207.335 416.904C207.335 416.595 207.239 416.349 207.047 416.168C206.855 415.987 206.503 415.832 205.991 415.704L205.111 415.48C204.46 415.32 203.975 415.043 203.655 414.648C203.335 414.243 203.175 413.763 203.175 413.208C203.175 412.803 203.265 412.429 203.447 412.088C203.628 411.736 203.916 411.453 204.311 411.24C204.705 411.027 205.217 410.92 205.847 410.92C206.252 410.92 206.663 410.968 207.079 411.064C207.505 411.149 207.937 411.299 208.375 411.512L207.959 412.616C207.18 412.264 206.476 412.088 205.847 412.088C204.919 412.088 204.455 412.435 204.455 413.128C204.455 413.395 204.54 413.624 204.711 413.816C204.881 414.008 205.201 414.163 205.671 414.28L206.551 414.504C207.255 414.675 207.772 414.952 208.103 415.336C208.433 415.72 208.599 416.216 208.599 416.824C208.599 417.261 208.503 417.661 208.311 418.024C208.129 418.376 207.831 418.653 207.415 418.856C207.009 419.059 206.46 419.16 205.767 419.16C205.308 419.16 204.849 419.112 204.391 419.016C203.943 418.92 203.479 418.765 202.999 418.552L203.351 417.464C203.809 417.645 204.225 417.779 204.599 417.864C204.972 417.949 205.351 417.992 205.735 417.992ZM215.041 418.712C214.444 419.011 213.809 419.16 213.137 419.16C212.561 419.16 212.108 419.043 211.777 418.808C211.457 418.573 211.228 418.259 211.089 417.864C210.961 417.469 210.897 417.032 210.897 416.552V412.232H209.521V411.08H210.897V408.872H212.209V411.08H214.801V412.232H212.209V416.504C212.209 417.059 212.3 417.443 212.481 417.656C212.673 417.859 212.967 417.96 213.361 417.96C213.553 417.96 213.751 417.939 213.953 417.896C214.167 417.843 214.396 417.757 214.641 417.64L215.041 418.712ZM225.068 419V417.896C224.577 418.365 224.129 418.696 223.724 418.888C223.329 419.069 222.918 419.16 222.492 419.16C221.649 419.16 220.998 418.84 220.54 418.2C220.092 417.56 219.868 416.664 219.868 415.512V414.584C219.868 413.464 220.145 412.573 220.7 411.912C221.265 411.251 222.081 410.92 223.148 410.92C223.457 410.92 223.766 410.952 224.076 411.016C224.385 411.08 224.694 411.171 225.004 411.288V407.16H226.316V419H225.068ZM221.228 415.512C221.228 416.344 221.356 416.957 221.612 417.352C221.878 417.736 222.273 417.928 222.796 417.928C223.105 417.928 223.425 417.853 223.756 417.704C224.086 417.544 224.502 417.219 225.004 416.728V412.504C224.694 412.365 224.396 412.269 224.108 412.216C223.82 412.152 223.537 412.12 223.26 412.12C222.534 412.12 222.012 412.339 221.692 412.776C221.382 413.213 221.228 413.816 221.228 414.584V415.512ZM234.022 419V417.88C233.468 418.36 232.972 418.696 232.534 418.888C232.097 419.069 231.66 419.16 231.222 419.16C230.518 419.16 229.98 418.931 229.606 418.472C229.233 418.003 229.046 417.347 229.046 416.504V411.08H230.358V416.312C230.358 416.867 230.454 417.277 230.646 417.544C230.849 417.8 231.148 417.928 231.542 417.928C231.841 417.928 232.177 417.853 232.55 417.704C232.924 417.555 233.388 417.256 233.942 416.808V411.08H235.254V419H234.022ZM241.808 412.152C241.509 412.152 241.173 412.232 240.8 412.392C240.427 412.541 239.957 412.84 239.392 413.288V419H238.08V411.08H239.328V412.184C239.893 411.715 240.395 411.389 240.832 411.208C241.269 411.016 241.701 410.92 242.128 410.92C242.629 410.92 243.045 411.037 243.376 411.272C243.707 411.496 243.952 411.821 244.112 412.248C244.699 411.747 245.221 411.4 245.68 411.208C246.149 411.016 246.608 410.92 247.056 410.92C247.76 410.92 248.299 411.155 248.672 411.624C249.045 412.083 249.232 412.739 249.232 413.592V419H247.92V413.784C247.92 412.696 247.525 412.152 246.736 412.152C246.437 412.152 246.096 412.232 245.712 412.392C245.339 412.541 244.869 412.84 244.304 413.288C244.315 413.331 244.32 413.379 244.32 413.432C244.32 413.485 244.32 413.539 244.32 413.592V419H243.008V413.784C243.008 412.696 242.608 412.152 241.808 412.152ZM255.714 412.152C255.415 412.152 255.079 412.232 254.706 412.392C254.333 412.541 253.863 412.84 253.298 413.288V419H251.986V411.08H253.234V412.184C253.799 411.715 254.301 411.389 254.738 411.208C255.175 411.016 255.607 410.92 256.034 410.92C256.535 410.92 256.951 411.037 257.282 411.272C257.613 411.496 257.858 411.821 258.018 412.248C258.605 411.747 259.127 411.4 259.586 411.208C260.055 411.016 260.514 410.92 260.962 410.92C261.666 410.92 262.205 411.155 262.578 411.624C262.951 412.083 263.138 412.739 263.138 413.592V419H261.826V413.784C261.826 412.696 261.431 412.152 260.642 412.152C260.343 412.152 260.002 412.232 259.618 412.392C259.245 412.541 258.775 412.84 258.21 413.288C258.221 413.331 258.226 413.379 258.226 413.432C258.226 413.485 258.226 413.539 258.226 413.592V419H256.914V413.784C256.914 412.696 256.514 412.152 255.714 412.152ZM268.362 419.8C268.021 420.76 267.599 421.459 267.098 421.896C266.607 422.344 265.919 422.568 265.034 422.568V421.272C265.397 421.261 265.706 421.213 265.962 421.128C266.229 421.043 266.463 420.867 266.666 420.6C266.879 420.344 267.082 419.96 267.274 419.448L267.434 419.048L264.586 411.08H265.93L267.258 414.936L268.074 417.4L268.858 414.936L270.154 411.08H271.45L268.362 419.8ZM281.505 419V417.896C281.015 418.365 280.567 418.696 280.161 418.888C279.767 419.069 279.356 419.16 278.929 419.16C278.087 419.16 277.436 418.84 276.977 418.2C276.529 417.56 276.305 416.664 276.305 415.512V414.584C276.305 413.464 276.583 412.573 277.137 411.912C277.703 411.251 278.519 410.92 279.585 410.92C279.895 410.92 280.204 410.952 280.513 411.016C280.823 411.08 281.132 411.171 281.441 411.288V407.16H282.753V419H281.505ZM277.665 415.512C277.665 416.344 277.793 416.957 278.049 417.352C278.316 417.736 278.711 417.928 279.233 417.928C279.543 417.928 279.863 417.853 280.193 417.704C280.524 417.544 280.94 417.219 281.441 416.728V412.504C281.132 412.365 280.833 412.269 280.545 412.216C280.257 412.152 279.975 412.12 279.697 412.12C278.972 412.12 278.449 412.339 278.129 412.776C277.82 413.213 277.665 413.816 277.665 414.584V415.512ZM291.372 419.08C290.881 419.08 290.487 418.968 290.188 418.744C289.9 418.52 289.697 418.243 289.58 417.912C289.057 418.371 288.583 418.696 288.156 418.888C287.729 419.069 287.303 419.16 286.876 419.16C286.183 419.16 285.671 418.936 285.34 418.488C285.009 418.04 284.844 417.491 284.844 416.84C284.844 416.403 284.924 416.013 285.084 415.672C285.244 415.331 285.516 415.064 285.9 414.872C286.284 414.669 286.801 414.568 287.452 414.568C287.74 414.568 288.055 414.589 288.396 414.632C288.737 414.664 289.084 414.707 289.436 414.76V413.688C289.436 413.091 289.303 412.685 289.036 412.472C288.78 412.248 288.401 412.136 287.9 412.136C287.217 412.136 286.455 412.323 285.612 412.696L285.196 411.608C285.687 411.384 286.156 411.213 286.604 411.096C287.052 410.979 287.505 410.92 287.964 410.92C288.711 410.92 289.281 411.043 289.676 411.288C290.071 411.533 290.343 411.859 290.492 412.264C290.641 412.669 290.716 413.112 290.716 413.592V417.016C290.716 417.261 290.764 417.469 290.86 417.64C290.956 417.8 291.148 417.88 291.436 417.88H291.612V419.08H291.372ZM286.14 416.824C286.14 417.187 286.225 417.48 286.396 417.704C286.567 417.928 286.812 418.04 287.132 418.04C287.409 418.04 287.729 417.96 288.092 417.8C288.455 417.629 288.903 417.293 289.436 416.792V415.784C288.711 415.667 288.071 415.608 287.516 415.608C287.025 415.608 286.673 415.709 286.46 415.912C286.247 416.115 286.14 416.419 286.14 416.824ZM297.823 418.712C297.225 419.011 296.591 419.16 295.919 419.16C295.343 419.16 294.889 419.043 294.559 418.808C294.239 418.573 294.009 418.259 293.871 417.864C293.743 417.469 293.679 417.032 293.679 416.552V412.232H292.303V411.08H293.679V408.872H294.991V411.08H297.583V412.232H294.991V416.504C294.991 417.059 295.081 417.443 295.263 417.656C295.455 417.859 295.748 417.96 296.143 417.96C296.335 417.96 296.532 417.939 296.735 417.896C296.948 417.843 297.177 417.757 297.423 417.64L297.823 418.712ZM305.341 419.08C304.85 419.08 304.455 418.968 304.157 418.744C303.869 418.52 303.666 418.243 303.549 417.912C303.026 418.371 302.551 418.696 302.125 418.888C301.698 419.069 301.271 419.16 300.845 419.16C300.151 419.16 299.639 418.936 299.309 418.488C298.978 418.04 298.813 417.491 298.813 416.84C298.813 416.403 298.893 416.013 299.053 415.672C299.213 415.331 299.485 415.064 299.869 414.872C300.253 414.669 300.77 414.568 301.421 414.568C301.709 414.568 302.023 414.589 302.365 414.632C302.706 414.664 303.053 414.707 303.405 414.76V413.688C303.405 413.091 303.271 412.685 303.005 412.472C302.749 412.248 302.37 412.136 301.869 412.136C301.186 412.136 300.423 412.323 299.581 412.696L299.165 411.608C299.655 411.384 300.125 411.213 300.573 411.096C301.021 410.979 301.474 410.92 301.933 410.92C302.679 410.92 303.25 411.043 303.645 411.288C304.039 411.533 304.311 411.859 304.461 412.264C304.61 412.669 304.685 413.112 304.685 413.592V417.016C304.685 417.261 304.733 417.469 304.829 417.64C304.925 417.8 305.117 417.88 305.405 417.88H305.581V419.08H305.341ZM300.109 416.824C300.109 417.187 300.194 417.48 300.365 417.704C300.535 417.928 300.781 418.04 301.101 418.04C301.378 418.04 301.698 417.96 302.061 417.8C302.423 417.629 302.871 417.293 303.405 416.792V415.784C302.679 415.667 302.039 415.608 301.485 415.608C300.994 415.608 300.642 415.709 300.429 415.912C300.215 416.115 300.109 416.419 300.109 416.824ZM308.303 419H306.831V417.544H308.303V419Z" fill="black"/>
</g>
</svg>
